<?xml version="1.0" encoding="UTF-8"?>
<svg width="110px" height="110px" viewBox="0 0 110 110" version="1.1" xmlns="http://www.w3.org/2000/svg" xmlns:xlink="http://www.w3.org/1999/xlink">
    <title>Availabilty 6 Speed@2x</title>
    <g id="Basic-UI-Components" stroke="none" stroke-width="1" fill="none" fill-rule="evenodd">
        <g id="International_Site_L_German-Icon" transform="translate(-975.000000, -1351.000000)">
            <g id="Group-10" transform="translate(0.000000, 1285.000000)">
                <g transform="translate(-82.000000, 0.000000)" id="Availabilty-6-Speed">
                    <g transform="translate(1057.000000, 66.000000)" id="Group-5">
                        <g id="Rectangle-2" fill="#E5EFF4">
                            <rect id="Rectangle" x="0" y="0" width="110" height="110" rx="3.1392"></rect>
                        </g>
                        <g id="Group-12" transform="translate(24.226190, 22.261905)">
                            <path d="M30.7738095,27.8954836 L47.5480297,6.3104107 C47.8139919,5.9681705 48.3070373,5.90633492 48.6492775,6.17229708 C48.9135243,6.3776489 49.018481,6.72797575 48.9106743,7.04479346 L39.7221554,34.047619 L39.7221554,34.047619" id="Path-22" stroke="#0171B7" stroke-width="2.3544"></path>
                            <g id="Group-8" transform="translate(54.246067, 0.000000)" stroke-width="1.5696">
                                <g id="Path-25" transform="translate(7.301552, 11.785714)" stroke="#FAA61A">
                                    <line x1="0.545739951" y1="0" x2="0.545739951" y2="5.09781081" id="Path-4"></line>
                                </g>
                                <g id="Path-25" transform="translate(2.548387, 9.035714) rotate(-270.000000) translate(-2.548387, -9.035714) translate(2.002647, 6.486809)" stroke="#F9AD2E">
                                    <line x1="0.545739951" y1="-1.12708567e-12" x2="0.545739951" y2="5.09781081" id="Path-4"></line>
                                </g>
                                <line x1="15.019794" y1="12.8760717" x2="9.92198315" y2="12.8760717" id="Path-4" stroke="#FAA61A" transform="translate(12.470889, 12.876072) rotate(44.000000) translate(-12.470889, -12.876072) "></line>
                                <line x1="3.9929552" y1="2.14012124" x2="3.9929552" y2="7.23793205" id="Path-4" stroke="#FAA61A" transform="translate(3.992955, 4.689027) rotate(-226.000000) translate(-3.992955, -4.689027) "></line>
                                <g id="Group-17" transform="translate(8.244388, 8.644061) rotate(136.000000) translate(-8.244388, -8.644061) translate(-0.616894, 8.098210)" stroke="#FAA61A">
                                    <line x1="17.7225647" y1="0.545851014" x2="12.6247539" y2="0.545851014" id="Path-4"></line>
                                    <g id="Path-25" transform="translate(3.540828, 0.545851) rotate(-270.000000) translate(-3.540828, -0.545851) translate(2.995088, -2.995697)">
                                        <line x1="0.545739951" y1="-4.81636211e-13" x2="0.545739951" y2="7.08309687" id="Path-4"></line>
                                    </g>
                                </g>
                                <line x1="7.69440939" y1="0" x2="7.69440939" y2="4.71428571" id="Path-4" stroke="#FAA61A"></line>
                                <line x1="16.7301237" y1="8.25" x2="12.015838" y2="8.25" id="Path-4" stroke="#FAA61A"></line>
                            </g>
                            <path d="M32.4176051,29.1295706 L37.7477461,32.2904673 C38.7011517,32.8558588 39.2857143,33.8821399 39.2857143,34.9905845 L39.2857143,40.9421454 C39.2857143,42.0482599 38.7035872,43.0727426 37.7533622,43.6389243 L32.3806575,46.8401952 C31.3906348,47.4300901 30.1569843,47.4300901 29.1669616,46.8401952 L23.8762956,43.6878063 C22.8822843,43.0955349 22.2946733,42.0044758 22.347177,40.8485834 L22.6196921,34.849048 C22.6665209,33.8180937 23.2170805,32.8760118 24.0923182,32.3291858 L29.1530327,29.1673815 C30.1485644,28.545399 31.4079346,28.5308127 32.4176051,29.1295706 Z" id="Path-21" stroke="#0171B7" stroke-width="3.1392"></path>
                            <path d="M0,37.9761905 C1.33940074,20.9593789 16.220051,8.25032633 33.2368625,9.58972706 C35.3705295,9.75766893 37.4809812,10.1467854 39.5342445,10.7508126 L39.9404762,10.8703175 L39.9404762,10.8703175" id="Path-19" stroke="#0171B7" stroke-width="3.1392"></path>
                            <path d="M50.4166667,16.3690476 C56.9557769,19.8080191 60.8843483,26.7921461 62.202381,37.3214286" id="Path-20" stroke="#0171B7" stroke-width="3.1392"></path>
                            <line x1="18.9880952" y1="52.7083333" x2="43.2142857" y2="52.7083333" id="Path-23" stroke="#0171B7" stroke-width="3.1392"></line>
                        </g>
                    </g>
                </g>
            </g>
        </g>
    </g>
</svg>