<?xml version="1.0" encoding="UTF-8"?>
<svg width="110px" height="110px" viewBox="0 0 110 110" version="1.1" xmlns="http://www.w3.org/2000/svg" xmlns:xlink="http://www.w3.org/1999/xlink">
    <title>One Contact@2x</title>
    <g id="Basic-UI-Components" stroke="none" stroke-width="1" fill="none" fill-rule="evenodd">
        <g id="International_Site_L_German-Icon" transform="translate(-406.000000, -1351.000000)">
            <g id="Group-10" transform="translate(0.000000, 1285.000000)">
                <g transform="translate(-82.000000, 0.000000)" id="One-Contact">
                    <g transform="translate(488.000000, 66.000000)" id="Group-9">
                        <rect id="Rectangle" fill="#E5EFF4" x="0" y="0" width="110" height="110" rx="3.1392"></rect>
                        <g id="Group-27" transform="translate(54.569304, 55.752573) rotate(-5.000000) translate(-54.569304, -55.752573) translate(5.564894, 29.356568)">
                            <g id="Group-8" transform="translate(33.313523, 0.019233)" stroke-width="1.5696">
                                <g id="Path-25" transform="translate(7.301552, 11.785714)" stroke="#FAA61A">
                                    <line x1="0.545739951" y1="-2.55976979e-13" x2="0.545739951" y2="5.09781081" id="Path-4"></line>
                                </g>
                                <g id="Path-25" transform="translate(2.548387, 9.035714) rotate(-270.000000) translate(-2.548387, -9.035714) translate(2.002647, 6.486809)" stroke="#F9AD2E">
                                    <line x1="0.545739951" y1="-2.04888323e-12" x2="0.545739951" y2="5.09781081" id="Path-4"></line>
                                </g>
                                <line x1="15.019794" y1="12.8760717" x2="9.92198315" y2="12.8760717" id="Path-4" stroke="#FAA61A" transform="translate(12.470889, 12.876072) rotate(44.000000) translate(-12.470889, -12.876072) "></line>
                                <line x1="3.9929552" y1="2.14012124" x2="3.9929552" y2="7.23793205" id="Path-4" stroke="#FAA61A" transform="translate(3.992955, 4.689027) rotate(-226.000000) translate(-3.992955, -4.689027) "></line>
                                <g id="Group-17" transform="translate(8.244388, 8.644061) rotate(136.000000) translate(-8.244388, -8.644061) translate(-0.616894, 8.098210)" stroke="#FAA61A">
                                    <line x1="17.7225647" y1="0.545851014" x2="12.6247539" y2="0.545851014" id="Path-4"></line>
                                    <g id="Path-25" transform="translate(3.540828, 0.545851) rotate(-270.000000) translate(-3.540828, -0.545851) translate(2.995088, -2.995697)">
                                        <line x1="0.545739951" y1="-2.55677721e-12" x2="0.545739951" y2="7.08309687" id="Path-4"></line>
                                    </g>
                                </g>
                                <line x1="7.69440939" y1="2.61373289e-13" x2="7.69440939" y2="4.71428571" id="Path-4" stroke="#FAA61A"></line>
                                <line x1="16.7301237" y1="8.25" x2="12.015838" y2="8.25" id="Path-4" stroke="#FAA61A"></line>
                            </g>
                            <path d="M65.7608321,16.6279241 L48.8141018,20.0026801 L49.1719003,21.1138985 C49.5673194,22.3419555 50.7643062,23.1291532 52.0485349,23.0057157 L52.0485349,23.0057157 L52.0485349,23.0057157 L57.5196324,28.2231164 C58.0150395,28.6955513 58.6915374,28.9289728 59.372869,28.8625645 L74.765864,27.3622345 L74.765864,27.3622345 L88.4850644,22.0129745 L96.5935966,22.0129745 L96.5935966,7.61244654 L88.4850644,7.61244654 L79.5318935,2.81489834 L60.5613067,2.81489834 C60.4724945,5.24157125 61.3146582,6.84075398 63.0877976,7.61244654 C64.8609371,8.38413911 68.0148178,8.66549098 72.5494397,8.45650217 L75.3593138,14.1247506 C76.9356091,17.3045691 80.1779982,19.3161651 83.7270759,19.3161651 C83.7270759,19.3161651 83.7270759,19.3161651 83.7270759,19.3161651" id="Path-26" stroke="#0171B7" stroke-width="2.3544" transform="translate(72.703849, 15.891024) rotate(-7.000000) translate(-72.703849, -15.891024) "></path>
                            <polyline id="Path-27" stroke="#0171B7" stroke-width="2.3544" transform="translate(61.978861, 15.130978) rotate(-7.000000) translate(-61.978861, -15.130978) " points="52.2743511 20.0922178 52.2743511 17.0222864 65.7050088 14.0396341 71.683371 10.1697391"></polyline>
                            <line x1="52.7936462" y1="25.5366523" x2="69.0509954" y2="20.9738898" id="Path-28" stroke="#0171B7" stroke-width="2.3544"></line>
                            <path d="M75.3934982,27.4748691 C70.9980155,25.756364 68.8002742,21.4919219 68.8002742,14.6815427" id="Path-29" stroke="#0171B7" stroke-width="2.3544" transform="translate(72.096886, 21.078206) rotate(-7.000000) translate(-72.096886, -21.078206) "></path>
                            <line x1="71.5595967" y1="24.2901368" x2="56.6310252" y2="28.2187083" id="Path-30" stroke="#0171B7" stroke-width="2.3544"></line>
                            <g id="Group-19" transform="translate(25.624506, 35.287423) rotate(-11.000000) translate(-25.624506, -35.287423) translate(2.096963, 22.029428)" stroke="#0171B7" stroke-width="2.3544">
                                <path d="M2.54140521e-12,7.49096757 L2.54140521e-12,19.2223211 L6.84445113,20.3398919 L21.3399688,26.5159886 L37.2963707,22.5845887 L38.8207221,20.8922589 L43.7407848,19.5691648 L44.9689464,17.6343247 L46.7977402,16.530069 L46.7977402,13.0103826 L43.7407848,12.3596011 L41.1281191,9.66579307 L21.8983981,6.72466829 L23.3988701,3.44015346 C25.746066,4.51415065 27.7444325,4.69232226 29.3939696,3.97466829 C31.0435068,3.25701433 32.0904161,1.9321249 32.5346977,-2.37540873e-12 L15.5792882,-2.37540873e-12 L5.6516059,6.72466829 L2.54140521e-12,7.49096757 Z" id="Path-2"></path>
                                <line x1="26.9721454" y1="13.0103826" x2="46.6150025" y2="13.7960969" id="Path-3"></line>
                                <line x1="25.4007168" y1="21.6532397" x2="38.7578597" y2="20.8675254" id="Path-18"></line>
                                <path d="M21.8983981,26.5159886 C26.1917303,21.2971873 27.7576456,16.1327394 26.5961442,11.0226449" id="Path-31"></path>
                                <line x1="26.1864311" y1="17.7246683" x2="45.6314223" y2="17.2967007" id="Path-16"></line>
                            </g>
                        </g>
                    </g>
                </g>
            </g>
        </g>
    </g>
</svg>