<?xml version="1.0" encoding="UTF-8"?>
<svg width="110px" height="110px" viewBox="0 0 110 110" version="1.1" xmlns="http://www.w3.org/2000/svg" xmlns:xlink="http://www.w3.org/1999/xlink">
    <title>Easy</title>
    <g id="Basic-UI-Components" stroke="none" stroke-width="1" fill="none" fill-rule="evenodd">
        <g id="International_Site_L_German-Icon" transform="translate(-122.000000, -1351.000000)">
            <g id="Group-10" transform="translate(0.000000, 1285.000000)">
                <g transform="translate(-82.000000, 0.000000)" id="Easy">
                    <g transform="translate(204.000000, 66.000000)">
                        <rect id="Rectangle" fill="#E5EFF4" x="0" y="0" width="110" height="110" rx="3.1392"></rect>
                        <g id="Group-7" transform="translate(25.992477, 19.742671)">
                            <path d="M57.8915925,70.4744529 L48.6495342,55.2636697 C48.114957,54.3838506 47.8834462,53.3530815 47.9904444,52.3291646 L48.9517255,43.1302036 C49.5471055,37.4327264 45.4110385,32.3313578 39.7135614,31.7359778 C39.5632462,31.72027 39.4126056,31.7078495 39.2617476,31.698725 L28.2218089,31.0309862 L28.2218089,31.0309862 L25.4670639,10.4314856 C25.1979753,8.41928821 23.4812515,6.91685732 21.4511414,6.91685732 C19.4927862,6.91685732 17.9052257,8.50441787 17.9052257,10.462773 L17.9052257,41.1739349 C17.9052257,42.040801 17.2024918,42.7435349 16.3356257,42.7435349 C16.206912,42.7435349 16.078687,42.7277025 15.953839,42.6963944 L6.66421084,40.3668372 C5.5575369,40.089317 4.43542576,40.7614788 4.15790548,41.8681527 C3.98921137,42.540858 4.16932322,43.2533248 4.63744025,43.765044 L9.1541337,48.7024393 C9.23460255,48.7904033 9.31170175,48.8813916 9.38526462,48.9752074 L14.2545531,55.1850823 C16.6573841,58.249448 19.7203132,60.7325168 23.2154274,62.4495233 L39.5508611,70.4744529 L39.5508611,70.4744529" id="Path-15" stroke="#0171B7" stroke-width="3.1392"></path>
                            <path d="M12.301119,14.1428571 L3.1392,14.1428571 C1.40546771,14.1428571 2.1232097e-16,12.7373894 0,11.0036571 L0,3.1392 C6.7585745e-16,1.40546771 1.40546771,-1.25607756e-16 3.1392,0 L40.8478149,0 C42.5815471,2.31715654e-15 43.9870149,1.40546771 43.9870149,3.1392 L43.9870149,11.0036571 C43.9870149,12.7373894 42.5815471,14.1428571 40.8478149,14.1428571 L29.3188461,14.1428571 L29.3188461,14.1428571" id="Path-17" stroke="#FAA61A" stroke-width="2.3544"></path>
                        </g>
                    </g>
                </g>
            </g>
        </g>
    </g>
</svg>